<?xml version="1.0" encoding="UTF-8" standalone="no"?>
<!DOCTYPE svg PUBLIC "-//W3C//DTD SVG 1.1//EN" "http://www.w3.org/Graphics/SVG/1.1/DTD/svg11.dtd">
<svg width="100%" height="100%" viewBox="0 0 163 253" version="1.1" xmlns="http://www.w3.org/2000/svg" xmlns:xlink="http://www.w3.org/1999/xlink" xml:space="preserve" xmlns:serif="http://www.serif.com/" style="fill-rule:evenodd;clip-rule:evenodd;stroke-linejoin:round;stroke-miterlimit:2;">
    <g transform="matrix(1,0,0,1,-42.6255,-39.0048)">
        <g transform="matrix(1,0,0,1,25.209,56.117)">
            <g id="gold" transform="matrix(1,0,0,1,19.3575,46.2639)">
                <g transform="matrix(1,0,0,1,0.790992,0.883012)">
                    <path d="M141.77,0.891C137.594,0.891 133.913,2.9 131.57,5.958L23.636,5.958C21.293,2.9 17.612,0.891 13.436,0.891C6.36,0.891 0.603,6.573 0.603,13.558C0.603,20.542 6.36,26.224 13.436,26.224C17.613,26.224 21.293,24.215 23.636,21.158L28.282,21.158L25.264,128.084C25.264,129.102 25.882,130.024 26.834,130.42L76.607,153.693C76.925,153.825 77.264,153.891 77.603,153.891C77.942,153.891 78.281,153.825 78.599,153.693L129.378,132.426C130.33,132.031 130.948,131.109 130.948,130.09L126.924,21.158L131.57,21.158C133.913,24.215 137.594,26.224 141.769,26.224C148.846,26.224 154.603,20.542 154.603,13.558C154.604,6.573 148.847,0.891 141.77,0.891ZM129.196,16.091L26.011,16.091C26.18,15.273 26.27,14.424 26.27,13.558C26.27,12.691 26.18,11.843 26.011,11.024L129.196,11.024C129.027,11.843 128.937,12.691 128.937,13.558C128.937,14.424 129.026,15.273 129.196,16.091Z" style="fill:rgb(252,194,17);fill-rule:nonzero;"/>
                </g>
                <g transform="matrix(0.983225,0,0,0.983225,-2.79885,34.4936)">
                    <clipPath id="_clip1">
                        <rect x="0.872" y="-113.104" width="165.077" height="328.315"/>
                    </clipPath>
                    <g clip-path="url(#_clip1)">
                        <path d="M139.809,101.531C140.14,101.099 140.33,100.564 140.33,100L139.487,36.194C141.988,35.839 144.181,34.47 145.163,32.401C147.395,27.736 148.087,22.574 146.732,17.732C145.377,12.889 146.883,8.969 148.681,4.898C149.135,3.965 149.792,3 150.469,2.005L150.469,2.005C150.867,1.421 151.271,0.827 151.645,0.224C151.366,1.337 151.055,2.388 150.753,3.407L150.753,3.408C150.134,5.495 149.556,7.447 149.376,9.527C149.316,11.221 150.065,13.421 151.248,15.026C155.833,21.154 158.08,27.752 156.454,35.061C155.692,38.098 153.874,40.796 152.153,43.35L152.153,43.35C151.95,43.651 151.748,43.951 151.549,44.249C150.561,45.669 149.462,46.981 148.385,48.266C147.491,49.333 146.612,50.382 145.824,51.461C144.158,53.616 144.241,54.866 145.864,56.613C147.857,58.724 150.129,59.212 152.021,57.863C155.443,55.539 157.246,52.204 157.14,48.009C156.731,42.493 159.701,38.555 163.92,35.264L163.92,35.264C163.634,36.151 163.42,36.816 162.914,37.632C162.785,38.031 162.523,38.387 162.273,38.725C161.969,39.138 161.685,39.524 161.688,39.929C161.624,40.264 161.548,40.611 161.471,40.965L161.471,40.965C161.122,42.561 160.744,44.297 161.293,45.676C163.981,52.416 162.634,58.101 158.064,63.237L157.833,63.524C155.888,65.942 154.072,68.2 153.957,71.459C153.958,71.601 153.956,71.751 153.955,71.906C153.948,72.559 153.94,73.309 154.123,73.96C154.734,77.339 156.429,78.864 158.988,78.465C161.766,78.137 163.724,75.83 163.481,72.815C163.539,71.968 163.369,71.239 163.119,70.167C163.105,70.107 163.091,70.045 163.076,69.982C163.057,69.9 163.038,69.815 163.018,69.729C166.259,72.487 166.431,75.724 165.359,79.05C165.319,79.174 165.267,79.473 165.191,79.914L165.191,79.914C164.393,84.546 160.902,104.786 139.809,101.531ZM26.581,36.054L26.303,97.996C26.303,99.013 26.919,99.934 27.867,100.329L29.387,101.08C6.177,106.28 2.458,84.715 1.63,79.914C1.554,79.474 1.503,79.174 1.463,79.05C0.391,75.724 0.563,72.487 3.804,69.729C3.769,69.881 3.735,70.027 3.702,70.167C3.453,71.239 3.283,71.968 3.341,72.815C3.098,75.83 5.056,78.137 7.834,78.465C10.392,78.864 12.088,77.339 12.699,73.96C12.882,73.309 12.874,72.559 12.867,71.906C12.866,71.751 12.864,71.601 12.865,71.459C12.75,68.2 10.933,65.942 8.989,63.524L8.758,63.237C4.187,58.101 2.841,52.416 5.528,45.676C6.078,44.297 5.699,42.561 5.351,40.965C5.274,40.611 5.198,40.264 5.134,39.929C5.137,39.524 4.853,39.138 4.548,38.725C4.299,38.387 4.037,38.031 3.908,37.632C3.402,36.816 3.188,36.151 2.902,35.264L2.902,35.264C7.121,38.555 10.09,42.493 9.682,48.009C9.576,52.204 11.379,55.539 14.801,57.863C16.693,59.212 18.965,58.724 20.958,56.613C22.581,54.866 22.664,53.616 20.998,51.461C20.209,50.382 19.331,49.333 18.437,48.266C17.36,46.981 16.261,45.669 15.273,44.249C15.074,43.951 14.872,43.651 14.669,43.35C12.948,40.796 11.13,38.098 10.368,35.061C8.742,27.752 10.989,21.154 15.574,15.026C16.757,13.421 17.506,11.221 17.446,9.527C17.266,7.447 16.687,5.495 16.069,3.408L16.069,3.408C15.767,2.389 15.456,1.338 15.177,0.224C15.551,0.827 15.955,1.421 16.353,2.005L16.353,2.005C17.03,2.999 17.687,3.965 18.141,4.898C19.939,8.969 21.445,12.889 20.09,17.732C18.735,22.574 19.426,27.736 21.659,32.401C22.541,34.259 24.399,35.552 26.581,36.054Z" style="fill:rgb(252,194,17);"/>
                    </g>
                </g>
                <g transform="matrix(1,0,0,1,40.6261,-64.1417)">
                    <path d="M30.724,47.73L32.459,46.352L30.104,22.682C27.005,23.308 24.154,24.31 21.675,25.688L29.856,48.231C30.104,48.231 30.476,47.98 30.724,47.73Z" style="fill:rgb(252,194,17);fill-rule:nonzero;"/>
                    <path d="M44.482,47.73C44.73,47.98 45.102,48.105 45.35,48.356L53.531,25.813C50.928,24.436 48.077,23.434 45.102,22.807L42.747,46.352L44.482,47.73Z" style="fill:rgb(252,194,17);fill-rule:nonzero;"/>
                    <path d="M33.45,13.289C33.45,13.79 33.574,14.416 33.698,14.792C34.318,16.295 35.805,17.422 37.541,17.422C39.276,17.422 40.764,16.295 41.383,14.792C41.631,14.291 41.631,13.79 41.631,13.289C41.631,11.787 40.888,10.534 39.772,9.783L44.358,10.659L44.358,4.898L39.4,5.775L40.268,0.766L34.69,0.766L35.558,5.775L30.599,4.898L30.599,10.534L35.31,9.783C34.194,10.534 33.45,11.787 33.45,13.289Z" style="fill:rgb(252,194,17);fill-rule:nonzero;"/>
                    <path d="M32.211,17.547L32.707,22.306L34.938,44.473L37.417,42.595L37.665,42.344L37.789,42.595L40.268,44.473L42.499,22.306L42.995,17.547L32.211,17.547Z" style="fill:rgb(252,194,17);fill-rule:nonzero;"/>
                    <path d="M7.916,46.978L10.519,48.481C11.263,48.857 12.13,48.481 12.378,48.356L12.378,40.716L22.666,47.98C23.162,48.356 23.782,48.606 24.526,48.857C25.517,49.107 26.509,49.232 27.377,49.107L19.32,27.191L15.849,17.547C15.849,17.547 3.33,18.675 3.33,30.071C3.33,37.21 5.561,43.096 7.296,46.603L7.916,46.978Z" style="fill:rgb(252,194,17);fill-rule:nonzero;"/>
                    <path d="M50.804,48.857C51.423,48.606 52.043,48.356 52.663,47.98L62.951,40.716L62.951,48.481C63.075,48.606 63.943,48.982 64.686,48.606L67.29,47.103L68.033,46.728C69.769,43.221 72,37.335 72,30.196C72,18.8 59.48,17.673 59.48,17.673L55.886,27.191L47.953,49.107C48.944,49.107 49.936,49.107 50.804,48.857Z" style="fill:rgb(252,194,17);fill-rule:nonzero;"/>
                    <path d="M68.653,59.878L6.553,59.878L6.553,66.891L68.653,66.891L68.653,59.878Z" style="fill:rgb(252,194,17);fill-rule:nonzero;"/>
                    <path d="M70.017,48.481L66.918,50.234L66.05,50.735C64.563,51.612 62.703,51.361 61.464,50.485C60.72,49.984 60.224,49.232 60.224,48.356L60.224,45.726L56.382,48.606L54.151,50.109C52.167,51.487 49.44,51.988 46.961,51.612C46.837,51.612 46.59,51.487 46.466,51.487C45.102,51.236 43.862,50.61 42.871,49.859L42.375,49.483L39.896,47.604L37.541,45.851L35.31,47.604L32.831,49.483L32.335,49.859C31.343,50.735 29.98,51.236 28.74,51.487C28.616,51.487 28.368,51.612 28.244,51.612C25.765,51.988 23.162,51.487 21.055,50.109L18.824,48.606L14.858,45.851L14.858,48.481C14.858,49.358 14.362,50.109 13.618,50.61C12.378,51.487 10.519,51.737 9.032,50.861L8.164,50.359L5.189,48.481L0.603,45.726L5.685,55.62L70.017,55.62L74.727,45.726L70.017,48.481Z" style="fill:rgb(252,194,17);fill-rule:nonzero;"/>
                </g>
                <g transform="matrix(1,0,0,1.16341,49.1881,121.589)">
                    <path d="M0.603,45.785L0.603,2.21L57.603,0.891L54.639,47.238L27.264,57.891L0.603,45.785Z" style="fill:url(#_Linear2);fill-rule:nonzero;"/>
                </g>
                <g transform="matrix(1,0,0,1,64.5079,132.039)">
                    <path d="M22.68,0.207C19.125,13.526 16.819,25.24 15.763,35.349L7.104,37.574L11.645,11.438L4.886,12.473L6.259,2.847L22.68,0.207Z" style="fill:white;fill-rule:nonzero;"/>
                </g>
            </g>
        </g>
    </g>
    <defs>
        <linearGradient id="_Linear2" x1="0" y1="0" x2="1" y2="0" gradientUnits="userSpaceOnUse" gradientTransform="matrix(1.09901e-14,179.482,-179.482,1.09901e-14,29.1029,-121.591)"><stop offset="0" style="stop-color:black;stop-opacity:1"/><stop offset="1" style="stop-color:rgb(42,101,80);stop-opacity:1"/></linearGradient>
    </defs>
</svg>
