<?xml version="1.0" encoding="UTF-8" standalone="no"?>
<!DOCTYPE svg PUBLIC "-//W3C//DTD SVG 1.1//EN" "http://www.w3.org/Graphics/SVG/1.1/DTD/svg11.dtd">
<svg width="100%" height="100%" viewBox="0 0 153 194" version="1.1" xmlns="http://www.w3.org/2000/svg" xmlns:xlink="http://www.w3.org/1999/xlink" xml:space="preserve" xmlns:serif="http://www.serif.com/" style="fill-rule:evenodd;clip-rule:evenodd;stroke-linejoin:round;stroke-miterlimit:2;">
    <g transform="matrix(1,0,0,1,-49.0136,-74.0599)">
        <g transform="matrix(1,0,0,1,25.209,56.117)">
            <g id="silver" transform="matrix(1,0,0,1,46.7247,88.3027)">
                <g transform="matrix(1,0,0,1,17.746,-71.3079)">
                    <path d="M57.693,17.775L60.157,22.924C60.978,24.671 60.522,26.786 58.971,27.89L51.852,33.59C51.213,34.142 50.482,34.418 49.752,34.51L50.482,28.257L54.133,24.12L50.117,16.856L44.641,23.108L47.288,27.89L46.558,34.142C45.919,33.866 45.371,33.407 44.915,32.763L39.804,26.142C38.709,24.671 38.617,22.74 39.713,21.269L44.094,15.017L34.145,0.948L24.106,15.017L28.487,21.269C29.491,22.74 29.491,24.763 28.395,26.142L23.284,32.763C22.828,33.315 22.28,33.774 21.641,34.142L21.003,27.982L23.649,23.2L18.173,16.948L14.157,24.212L17.808,28.349L18.538,34.602C17.808,34.418 17.078,34.142 16.439,33.682L9.32,27.982C7.86,26.786 7.312,24.671 8.134,23.016L10.598,17.867L0.923,8.396L6.582,36.993L6.582,39.843L61.617,39.843L61.617,36.993L67.276,8.396L57.693,17.775ZM34.145,12.442C35.332,12.442 36.244,13.361 36.244,14.557C36.244,15.752 35.332,16.672 34.145,16.672C32.959,16.672 32.046,15.752 32.046,14.557C32.046,13.361 32.959,12.442 34.145,12.442ZM34.145,31.108C35.332,31.108 36.244,32.027 36.244,33.223C36.244,34.418 35.332,35.338 34.145,35.338C32.959,35.338 32.046,34.418 32.046,33.223C31.955,32.119 32.959,31.108 34.145,31.108Z" style="fill:rgb(199,199,199);fill-rule:nonzero;"/>
                </g>
                <g transform="matrix(1,0,0,1,-18.1383,-32.558)">
                    <path d="M127.484,0.891C123.742,0.891 120.444,2.703 118.344,5.461L21.624,5.461C19.524,2.703 16.226,0.891 12.484,0.891C6.143,0.891 0.984,6.016 0.984,12.316C0.984,18.615 6.143,23.741 12.484,23.741C16.226,23.741 19.524,21.929 21.624,19.171L25.787,19.171L23.082,115.614C23.082,116.532 23.637,117.364 24.49,117.721L69.091,138.713C69.376,138.831 69.68,138.891 69.984,138.891C70.287,138.891 70.591,138.831 70.876,138.713L116.379,119.53C117.233,119.174 117.787,118.342 117.787,117.424L114.181,19.171L118.344,19.171C120.443,21.929 123.742,23.741 127.484,23.741C133.825,23.741 138.984,18.616 138.984,12.316C138.984,6.016 133.825,0.891 127.484,0.891ZM116.217,14.601L23.752,14.601C23.903,13.863 23.984,13.097 23.984,12.316C23.984,11.534 23.903,10.769 23.752,10.031L116.217,10.031C116.065,10.769 115.984,11.534 115.984,12.316C115.984,13.097 116.065,13.863 116.217,14.601Z" style="fill:rgb(199,199,199);fill-rule:nonzero;"/>
                </g>
                <g transform="matrix(1,0,0,1,-23.8473,2.49266)">
                    <path d="M27.085,12.814C24.839,11.311 21.964,10.353 18.532,10.024L13.65,9.555C10.861,9.288 9.55,7.579 9.804,4.966C9.83,4.469 9.871,3.992 9.911,3.526L9.911,3.526C9.997,2.514 10.078,1.559 9.996,0.588C6.583,6.239 7.906,12.169 12.152,14.335C14.77,15.642 17.388,16.948 19.948,18.6C22.946,20.822 22.145,25.669 18.232,28.987C14.116,32.46 7.726,32.55 6.554,28.921C5.326,25.638 4.852,22.075 7.542,17.586C7.923,17.043 8.205,16.373 8.615,15.399L8.615,15.399C8.704,15.189 8.798,14.966 8.9,14.727C3.801,19.864 -0.767,28.218 1.544,34.595C3.095,39.14 6.53,41.931 11.791,43.316C12.33,43.493 12.877,43.654 13.42,43.813L13.42,43.814C15.923,44.551 18.338,45.262 19.442,47.391C19.485,47.482 19.529,47.574 19.574,47.667C20.074,48.71 20.648,49.908 20.759,51.21C20.79,52.092 19.807,53.756 18.938,54.728C17.46,56.169 15.862,56.191 14.728,55.555C12.11,54.249 10.361,51.971 9.976,48.944C10.09,48.252 10.002,47.716 9.913,47.18L9.913,47.18C4.382,53.859 4.95,60.068 11.346,62.089C12.685,62.622 14.178,62.937 15.687,63.256C16.798,63.49 17.918,63.726 18.991,64.053C21.688,64.645 23.692,66.011 25.543,67.584L27.085,12.814ZM127.445,69.093L125.438,14.629C127.862,12.075 131.495,10.471 136.152,10.024L141.034,9.555C143.823,9.288 145.135,7.579 144.88,4.966C144.854,4.469 144.813,3.992 144.773,3.526C144.687,2.514 144.606,1.559 144.688,0.588C148.101,6.239 146.778,12.169 142.532,14.335C139.914,15.642 137.296,16.948 134.736,18.6C131.738,20.822 132.539,25.669 136.452,28.987C140.568,32.46 146.958,32.55 148.13,28.921C149.358,25.638 149.832,22.075 147.142,17.586C146.761,17.043 146.479,16.373 146.069,15.399L146.069,15.399C145.981,15.19 145.887,14.966 145.784,14.727C150.884,19.864 155.452,28.218 153.14,34.595C151.589,39.14 148.154,41.931 142.893,43.316C142.354,43.493 141.807,43.654 141.264,43.814C138.761,44.551 136.346,45.262 135.243,47.391C135.199,47.482 135.155,47.574 135.11,47.667C134.61,48.71 134.036,49.908 133.926,51.21C133.894,52.092 134.878,53.756 135.747,54.728C137.224,56.169 138.822,56.191 139.956,55.555C142.574,54.249 144.323,51.971 144.708,48.944C144.594,48.252 144.683,47.716 144.771,47.18C150.302,53.859 149.734,60.068 143.338,62.089C141.999,62.622 140.506,62.937 138.997,63.256C137.886,63.49 136.766,63.726 135.694,64.053C132.159,64.829 129.814,66.934 127.445,69.093Z" style="fill:rgb(199,199,199);"/>
                </g>
                <g transform="matrix(1,0,0,1,31.7469,74.378)">
                    <path d="M0.352,40.357L0.352,0.998L39.845,0.099L37.792,41.347L18.825,48.604L0.352,40.357Z" style="fill:url(#_Linear1);fill-rule:nonzero;"/>
                </g>
                <g transform="matrix(1,0,0,1,36.5195,84.0685)">
                    <path d="M18.836,9.289C18.836,8.746 18.694,8.294 18.41,7.932C18.125,7.544 17.737,7.35 17.246,7.35C16.16,7.35 15.578,8.242 15.501,10.026L8.442,11.268C9.657,5.631 11.881,2.114 15.113,0.718C15.992,0.33 16.91,0.136 17.867,0.136C19.832,0.136 21.525,0.795 22.948,2.114C24.861,3.821 25.818,5.85 25.818,8.203C25.818,10.453 24.848,12.638 22.909,14.758C21.564,16.284 19.444,17.706 16.548,19.025C14.35,20.033 12.993,20.977 12.475,21.856L22.327,21.235L21.513,28.294L4.912,29.186C4.86,28.462 4.835,27.92 4.835,27.558C4.835,25.075 5.339,22.942 6.347,21.158C7.537,18.96 10.239,16.749 14.454,14.525C16.781,13.31 18.151,12.108 18.565,10.918C18.746,10.35 18.836,9.807 18.836,9.289Z" style="fill:white;fill-rule:nonzero;"/>
                </g>
            </g>
        </g>
    </g>
    <defs>
        <linearGradient id="_Linear1" x1="0" y1="0" x2="1" y2="0" gradientUnits="userSpaceOnUse" gradientTransform="matrix(7.48671e-15,122.267,-122.267,7.48671e-15,20.0987,-73.6632)"><stop offset="0" style="stop-color:black;stop-opacity:1"/><stop offset="1" style="stop-color:rgb(42,48,101);stop-opacity:1"/></linearGradient>
    </defs>
</svg>
