<svg width="155" height="154" viewBox="0 0 155 154" fill="none" xmlns="http://www.w3.org/2000/svg">
<path d="M141.77 0.890869C137.594 0.890869 133.913 2.89981 131.57 5.95761H23.6362C21.2928 2.89981 17.6122 0.890869 13.4364 0.890869C6.35988 0.890869 0.602905 6.57332 0.602905 13.5576C0.602905 20.5418 6.35988 26.2243 13.4364 26.2243C17.6125 26.2243 21.2931 24.2153 23.6362 21.1575H28.2816L25.2636 128.084C25.2636 129.102 25.8823 130.024 26.8343 130.42L76.607 153.693C76.9252 153.825 77.2642 153.891 77.6029 153.891C77.9416 153.891 78.2806 153.825 78.5988 153.693L129.378 132.426C130.33 132.031 130.948 131.109 130.948 130.09L126.924 21.1575H131.57C133.913 24.2153 137.594 26.2243 141.769 26.2243C148.846 26.2243 154.603 20.5421 154.603 13.5576C154.604 6.57332 148.847 0.890869 141.77 0.890869ZM129.196 16.0908H126.37H28.8365H26.0106C26.1799 15.2726 26.2699 14.4238 26.2699 13.5576C26.2699 12.6913 26.1799 11.8425 26.0106 11.0243H129.196C129.027 11.8425 128.937 12.6913 128.937 13.5576C128.937 14.4238 129.026 15.2726 129.196 16.0908Z" fill="#FCC211"/>
</svg>
