<svg width="75" height="67" viewBox="0 0 75 67" fill="none" xmlns="http://www.w3.org/2000/svg">
<g clip-path="url(#clip0_1:505)">
<path d="M30.7235 47.7296L32.4588 46.352L30.1037 22.6821C27.0049 23.3083 24.154 24.3102 21.6749 25.6878L29.8558 48.2305C30.1037 48.2305 30.4756 47.98 30.7235 47.7296Z" fill="#FCC211"/>
<path d="M44.4823 47.7296C44.7302 47.9801 45.1021 48.1053 45.35 48.3558L53.5309 25.8131C50.9279 24.4355 48.0769 23.4336 45.1021 22.8074L42.747 46.352L44.4823 47.7296Z" fill="#FCC211"/>
<path d="M33.4503 13.2893C33.4503 13.7903 33.5742 14.4165 33.6982 14.7922C34.318 16.295 35.8054 17.4222 37.5407 17.4222C39.2761 17.4222 40.7635 16.295 41.3833 14.7922C41.6312 14.2912 41.6312 13.7903 41.6312 13.2893C41.6312 11.7865 40.8875 10.5341 39.7719 9.7827L44.3582 10.6594V4.89845L39.4 5.77511L40.2677 0.765625H34.6898L35.5575 5.77511L30.5994 4.89845V10.5341L35.3096 9.7827C34.194 10.5341 33.4503 11.7865 33.4503 13.2893Z" fill="#FCC211"/>
<path d="M32.2109 17.5474L32.7068 22.3064L34.9379 44.4734L37.417 42.5949L37.6649 42.3444L37.7888 42.5949L40.2679 44.4734L42.4991 22.3064L42.9949 17.5474H37.6649H32.2109Z" fill="#FCC211"/>
<path d="M7.91595 46.9782L10.519 48.481C11.2627 48.8567 12.1304 48.481 12.3783 48.3558V47.7296V40.7163L22.6664 47.9801C23.1622 48.3558 23.7819 48.6062 24.5257 48.8567C25.5173 49.1072 26.5089 49.2324 27.3766 49.1072L19.3196 27.1907L15.8489 17.5474C15.8489 17.5474 3.32969 18.6746 3.32969 30.0711C3.32969 37.2097 5.56084 43.0958 7.29618 46.6025L7.91595 46.9782Z" fill="#FCC211"/>
<path d="M50.8037 48.8567C51.4235 48.6063 52.0433 48.3558 52.663 47.9801L62.9511 40.7163V47.7296V48.481C63.0751 48.6063 63.9428 48.982 64.6865 48.6063L67.2895 47.1034L68.0332 46.7277C69.7685 43.2211 71.9997 37.3349 71.9997 30.1964C71.9997 18.7998 59.4804 17.6727 59.4804 17.6727L55.8858 27.1907L47.9528 49.1072C48.9444 49.1072 49.9361 49.1072 50.8037 48.8567Z" fill="#FCC211"/>
<path d="M9.15586 59.8776H6.55284V66.8909H68.6534V59.8776H66.0503H9.15586Z" fill="#FCC211"/>
<path d="M70.0166 48.481L66.9178 50.2343L66.0501 50.7353C64.5627 51.6119 62.7034 51.3614 61.4639 50.4848C60.7202 49.9838 60.2243 49.2324 60.2243 48.3558V47.98V45.7258L56.3818 48.6062L54.1506 50.1091C52.1674 51.4867 49.4404 51.9876 46.9614 51.6119C46.8374 51.6119 46.5895 51.4867 46.4655 51.4867C45.1021 51.2362 43.8625 50.61 42.8709 49.8586L42.3751 49.4829L39.896 47.6043L37.5409 45.851L35.3098 47.6043L32.8307 49.4829L32.3349 49.8586C31.3433 50.7353 29.9798 51.2362 28.7403 51.4867C28.6163 51.4867 28.3684 51.6119 28.2444 51.6119C25.7654 51.9876 23.1624 51.4867 21.0552 50.1091L18.824 48.6062L14.8575 45.851V48.1053V48.481C14.8575 49.3576 14.3617 50.1091 13.618 50.61C12.3784 51.4867 10.5192 51.7372 9.03172 50.8605L8.16404 50.3595L5.18917 48.481L0.602905 45.7258L5.68498 55.6195H8.65986H67.0418H70.0166L74.7269 45.7258L70.0166 48.481Z" fill="#FCC211"/>
</g>
<defs>
<clipPath id="clip0_1:505">
<rect width="74" height="66" fill="white" transform="translate(0.602905 0.890869)"/>
</clipPath>
</defs>
</svg>
