<svg width="166" height="102" viewBox="0 0 166 102" fill="none" xmlns="http://www.w3.org/2000/svg">
<path fill-rule="evenodd" clip-rule="evenodd" d="M139.809 101.531C140.14 101.099 140.33 100.564 140.33 99.9998L139.487 36.1936C141.988 35.8385 144.181 34.4697 145.163 32.4011C147.395 27.7357 148.087 22.5739 146.732 17.7316C145.377 12.8893 146.883 8.969 148.681 4.89793C149.135 3.96458 149.792 2.99952 150.469 2.00499L150.469 2.00492C150.867 1.42116 151.271 0.827248 151.645 0.223633C151.366 1.33739 151.055 2.38822 150.753 3.40676L150.753 3.4077C150.134 5.49532 149.556 7.44732 149.376 9.52745C149.316 11.2214 150.065 13.4209 151.248 15.026C155.833 21.154 158.08 27.7522 156.454 35.0605C155.692 38.0983 153.874 40.7958 152.153 43.3495L152.153 43.3497C151.95 43.6514 151.748 43.9512 151.549 44.2493C150.561 45.6692 149.462 46.9806 148.385 48.2659C147.491 49.333 146.612 50.3821 145.824 51.4605C144.158 53.6158 144.241 54.8663 145.864 56.6133C147.857 58.7239 150.129 59.2115 152.021 57.8631C155.443 55.5391 157.246 52.2041 157.14 48.0091C156.731 42.4927 159.701 38.5545 163.92 35.2636L163.92 35.2642C163.634 36.1508 163.42 36.8159 162.914 37.6317C162.785 38.0311 162.523 38.3874 162.273 38.7255C161.969 39.1384 161.685 39.5243 161.688 39.9289C161.624 40.2637 161.548 40.6107 161.471 40.9646L161.471 40.9649C161.122 42.5612 160.744 44.2969 161.293 45.6761C163.981 52.4162 162.634 58.1014 158.064 63.2371L157.833 63.5242C155.888 65.9417 154.072 68.1998 153.957 71.4591C153.958 71.6009 153.956 71.7509 153.955 71.9065C153.948 72.5586 153.94 73.3085 154.123 73.9601C154.734 77.3391 156.429 78.8644 158.988 78.465C161.766 78.1365 163.724 75.8304 163.481 72.815C163.539 71.9678 163.369 71.2386 163.119 70.1672C163.105 70.1065 163.091 70.0448 163.076 69.9818C163.057 69.8995 163.038 69.8152 163.018 69.7286C166.259 72.4865 166.431 75.7237 165.359 79.0496C165.319 79.174 165.267 79.4732 165.191 79.9135L165.191 79.9141C164.393 84.546 160.902 104.786 139.809 101.531ZM26.581 36.0538L26.3028 97.9958C26.3028 99.0129 26.9191 99.9342 27.8673 100.329L29.3865 101.08C6.17693 106.28 2.45824 84.7146 1.63047 79.9141C1.55449 79.4735 1.50287 79.1741 1.46276 79.0496C0.390959 75.7237 0.562579 72.4865 3.80407 69.7286C3.76905 69.8813 3.73506 70.0272 3.70243 70.1672C3.45273 71.2386 3.28279 71.9678 3.34092 72.815C3.09787 75.8304 5.05581 78.1365 7.83416 78.465C10.3924 78.8644 12.0875 77.3391 12.6993 73.9601C12.8816 73.3085 12.8739 72.5586 12.8672 71.9064C12.8656 71.7509 12.864 71.6009 12.8651 71.4591C12.7497 68.1998 10.9333 65.9417 8.98868 63.5242L8.75783 63.2371C4.18741 58.1014 2.84127 52.4162 5.52834 45.6761C6.07817 44.2969 5.69931 42.5612 5.3509 40.965C5.27364 40.611 5.19787 40.2638 5.13406 39.9289C5.13721 39.5243 4.85273 39.1384 4.54842 38.7255C4.29914 38.3874 4.03654 38.0311 3.90784 37.6317C3.40205 36.8159 3.18773 36.1509 2.90202 35.2642L2.90181 35.2636C7.1207 38.5545 10.0904 42.4927 9.6815 48.0091C9.57562 52.2041 11.3792 55.5391 14.8006 57.8631C16.6929 59.2115 18.9653 58.7239 20.9576 56.6133C22.5812 54.8663 22.6642 53.6158 20.9978 51.4605C20.2095 50.3821 19.3306 49.333 18.4366 48.2659C17.3598 46.9806 16.2612 45.6692 15.2727 44.2493C15.0739 43.9512 14.8718 43.6514 14.6685 43.3496C12.9475 40.7959 11.1296 38.0984 10.3679 35.0605C8.74166 27.7522 10.9886 21.154 15.5736 15.026C16.757 13.4209 17.506 11.2214 17.446 9.52745C17.2655 7.44731 16.6874 5.4953 16.0691 3.40766L16.0691 3.40765C15.7673 2.38883 15.456 1.33771 15.1767 0.223633C15.5509 0.827249 15.9552 1.42116 16.3527 2.00492L16.3527 2.00494C17.0298 2.99949 17.6868 3.96457 18.1407 4.89793C19.9385 8.969 21.4448 12.8893 20.0898 17.7316C18.7348 22.5739 19.4263 27.7357 21.6586 32.4011C22.5408 34.2589 24.3991 35.5523 26.581 36.0538Z" fill="#FCC211"/>
</svg>
