<?xml version="1.0" encoding="UTF-8" standalone="no"?>
<!DOCTYPE svg PUBLIC "-//W3C//DTD SVG 1.1//EN" "http://www.w3.org/Graphics/SVG/1.1/DTD/svg11.dtd">
<svg width="100%" height="100%" viewBox="0 0 149 198" version="1.1" xmlns="http://www.w3.org/2000/svg" xmlns:xlink="http://www.w3.org/1999/xlink" xml:space="preserve" xmlns:serif="http://www.serif.com/" style="fill-rule:evenodd;clip-rule:evenodd;stroke-linejoin:round;stroke-miterlimit:2;">
    <g transform="matrix(1,0,0,1,-49.6491,-69.1205)">
        <g transform="matrix(1,0,0,1,25.209,56.117)">
            <g id="bronze" transform="matrix(1,0,0,1,49.2112,88.321)">
                <g transform="matrix(1,0,0,1,18.4959,-76.0137)">
                    <path d="M51.64,22.53C54.256,23.134 56.168,25.548 56.168,28.366C56.168,31.686 53.452,34.302 50.232,34.302C49.226,34.302 48.32,34.101 47.515,33.597C47.012,33.296 46.509,32.994 46.106,32.591C45.402,33.296 44.497,33.799 43.591,34C43.088,34.101 42.585,34.201 41.981,34.201C38.661,34.201 36.045,31.485 36.045,28.265C36.045,25.045 38.661,22.429 41.881,22.329L30.914,0.696L19.946,22.329C23.166,22.429 25.782,25.045 25.782,28.265C25.782,31.585 23.066,34.201 19.846,34.201C19.343,34.201 18.739,34.101 18.236,34C17.23,33.698 16.425,33.195 15.721,32.591C15.318,32.994 14.815,33.296 14.312,33.597C13.507,34 12.501,34.302 11.595,34.302C8.275,34.302 5.659,31.585 5.659,28.366C5.659,25.548 7.571,23.234 10.187,22.53L0.829,9.249L0.829,44.263L60.897,44.263L60.897,9.249L51.64,22.53ZM56.772,37.723C57.577,37.723 58.18,38.327 58.18,39.131C58.18,39.936 57.577,40.54 56.772,40.54C55.967,40.54 55.363,39.936 55.363,39.131C55.363,38.327 55.967,37.723 56.772,37.723ZM50.232,37.723C51.037,37.723 51.64,38.327 51.64,39.131C51.64,39.635 51.339,40.138 50.936,40.339C50.735,40.439 50.534,40.54 50.232,40.54C49.427,40.54 48.823,39.936 48.823,39.131C48.823,38.528 49.125,38.125 49.628,37.823C49.829,37.823 50.031,37.723 50.232,37.723ZM43.792,37.723C44.597,37.723 45.201,38.327 45.201,39.131C45.201,39.936 44.597,40.54 43.792,40.54C42.987,40.54 42.384,39.936 42.384,39.131C42.384,38.327 42.987,37.723 43.792,37.723ZM37.353,37.723C38.158,37.723 38.762,38.327 38.762,39.131C38.762,39.936 38.158,40.54 37.353,40.54C36.548,40.54 35.944,39.936 35.944,39.131C35.944,38.327 36.548,37.723 37.353,37.723ZM30.914,37.723C31.718,37.723 32.322,38.327 32.322,39.131C32.322,39.936 31.718,40.54 30.914,40.54C30.109,40.54 29.505,39.936 29.505,39.131C29.505,38.327 30.109,37.723 30.914,37.723ZM24.374,37.723C25.178,37.723 25.782,38.327 25.782,39.131C25.782,39.936 25.178,40.54 24.374,40.54C23.569,40.54 22.965,39.936 22.965,39.131C22.965,38.327 23.669,37.723 24.374,37.723ZM17.934,37.723C18.739,37.723 19.343,38.327 19.343,39.131C19.343,39.936 18.739,40.54 17.934,40.54C17.129,40.54 16.526,39.936 16.526,39.131C16.526,38.327 17.129,37.723 17.934,37.723ZM11.495,37.723C11.696,37.723 11.897,37.823 12.098,37.823C12.602,38.025 12.903,38.528 12.903,39.131C12.903,39.936 12.3,40.54 11.495,40.54C11.294,40.54 10.992,40.439 10.79,40.339C10.388,40.138 10.086,39.635 10.086,39.131C10.086,38.327 10.69,37.723 11.495,37.723ZM5.055,37.723C5.86,37.723 6.464,38.327 6.464,39.131C6.464,39.936 5.86,40.54 5.055,40.54C4.25,40.54 3.647,39.936 3.647,39.131C3.647,38.327 4.25,37.723 5.055,37.723Z" style="fill:rgb(190,141,105);fill-rule:nonzero;"/>
                </g>
                <g transform="matrix(1,0,0,1,-20.2848,-32.4757)">
                    <path d="M127.561,0.891C123.792,0.891 120.47,2.703 118.355,5.461L20.934,5.461C18.819,2.703 15.496,0.891 11.727,0.891C5.34,0.891 0.144,6.016 0.144,12.316C0.144,18.615 5.34,23.741 11.727,23.741C15.497,23.741 18.819,21.929 20.934,19.171L25.127,19.171L22.403,115.614C22.403,116.532 22.961,117.364 23.82,117.721L68.745,138.713C69.032,138.831 69.338,138.891 69.644,138.891C69.95,138.891 70.256,138.831 70.543,138.713L116.376,119.53C117.235,119.174 117.793,118.342 117.793,117.424L114.161,19.171L118.354,19.171C120.469,21.929 123.791,23.741 127.56,23.741C133.947,23.741 139.144,18.616 139.144,12.316C139.144,6.016 133.948,0.891 127.561,0.891ZM116.212,14.601L23.077,14.601C23.23,13.863 23.311,13.097 23.311,12.316C23.311,11.534 23.23,10.769 23.077,10.031L116.212,10.031C116.059,10.769 115.978,11.534 115.978,12.316C115.978,13.097 116.059,13.863 116.212,14.601Z" style="fill:rgb(190,141,105);fill-rule:nonzero;"/>
                </g>
                <g transform="matrix(1.00497,0,0,1.00497,-25.5066,11.1379)">
                    <path d="M126.593,71.517L124.426,12.702C126.231,11.595 128.398,10.808 130.899,10.383L135.548,9.593C138.204,9.141 139.361,7.287 138.966,4.592C138.912,4.079 138.846,3.586 138.781,3.105L138.781,3.105C138.64,2.061 138.507,1.075 138.529,0.063C142.125,5.712 141.202,11.946 137.259,14.458C134.827,15.976 132.396,17.495 130.039,19.369C127.296,21.86 128.343,26.838 132.283,30.036C136.427,33.382 142.553,33.077 143.465,29.239C144.452,25.757 144.7,22.032 141.863,17.542C141.467,17.003 141.158,16.325 140.709,15.341L140.706,15.334C140.61,15.124 140.508,14.9 140.397,14.661C145.579,19.673 150.438,28.054 148.593,34.812C147.37,39.624 144.241,42.734 139.282,44.498C138.776,44.715 138.261,44.916 137.751,45.116L137.75,45.116C135.395,46.037 133.123,46.925 132.19,49.203C132.153,49.299 132.116,49.398 132.079,49.498C131.66,50.611 131.179,51.889 131.149,53.246C131.17,54.164 132.208,55.829 133.097,56.782C134.596,58.185 136.127,58.109 137.177,57.378C139.609,55.859 141.152,53.387 141.346,50.224C141.197,49.512 141.25,48.951 141.304,48.389C146.988,54.973 146.804,61.449 140.794,63.944C139.542,64.581 138.13,65.001 136.704,65.425C135.653,65.738 134.594,66.053 133.585,66.459C130.565,67.386 128.539,69.379 126.593,71.517ZM25.622,12.907C23.754,11.692 21.477,10.834 18.825,10.383L14.176,9.593C11.52,9.141 10.362,7.287 10.758,4.592C10.811,4.079 10.878,3.586 10.943,3.105C11.084,2.061 11.217,1.075 11.195,0.063C7.599,5.712 8.522,11.946 12.465,14.458C14.896,15.976 17.328,17.495 19.685,19.369C22.428,21.86 21.381,26.838 17.441,30.036C13.297,33.382 7.171,33.077 6.259,29.239C5.272,25.757 5.024,22.032 7.861,17.542C8.257,17.003 8.566,16.325 9.015,15.341C9.112,15.129 9.215,14.903 9.327,14.661C4.145,19.673 -0.714,28.054 1.131,34.812C2.354,39.624 5.483,42.734 10.442,44.498C10.948,44.715 11.463,44.916 11.973,45.116L11.973,45.116C14.329,46.037 16.6,46.925 17.534,49.203C17.57,49.299 17.607,49.398 17.645,49.498C18.064,50.611 18.545,51.889 18.575,53.246C18.554,54.164 17.516,55.829 16.627,56.782C15.128,58.185 13.597,58.109 12.547,57.378C10.115,55.859 8.572,53.387 8.378,50.224C8.527,49.513 8.473,48.951 8.42,48.389L8.42,48.389C2.735,54.973 2.92,61.449 8.929,63.944C10.182,64.581 11.593,65.001 13.02,65.425L13.02,65.426C14.071,65.738 15.13,66.053 16.138,66.459C19.522,67.497 21.658,69.874 23.831,72.293C24.003,72.484 24.175,72.676 24.348,72.867C24.106,72.502 23.969,72.067 23.969,71.612L25.622,12.907ZM24.825,73.39C24.992,73.524 25.18,73.636 25.384,73.722L25.576,73.819C25.327,73.795 25.167,73.756 25.106,73.692C25.012,73.592 24.918,73.491 24.825,73.39Z" style="fill:rgb(190,141,105);"/>
                </g>
                <g transform="matrix(1,0,0,1,29.0613,74.1578)">
                    <path d="M0.454,41.122L0.454,1.339L40.142,0.533L38.078,42.01L19.017,48.517L0.454,41.122Z" style="fill:url(#_Linear1);fill-rule:nonzero;"/>
                </g>
                <g transform="matrix(1,0,0,1,36.0882,84.7992)">
                    <path d="M10.63,20.584C10.63,21.005 10.841,21.216 11.262,21.216C11.436,21.216 11.634,21.179 11.857,21.105C12.899,20.807 13.692,20.299 14.238,19.58C14.461,19.307 14.573,19.034 14.573,18.761C14.573,17.67 13.395,17.125 11.039,17.125C9.75,17.125 8.051,17.273 5.943,17.571L7.171,11.471C9.725,9.784 11.833,8.371 13.494,7.23C10.766,7.478 8.733,7.689 7.394,7.863L7.803,0.981L22.458,0.126C21.987,2.953 21.566,5.668 21.194,8.272C19.681,8.297 17.685,9.363 15.205,11.471C17.486,11.818 19.185,12.438 20.301,13.331C21.442,14.223 22,15.389 21.975,16.827C21.975,19.331 20.499,21.799 17.548,24.229C14.548,26.709 11.709,27.837 9.03,27.614C5.956,27.366 4.307,25.084 4.083,20.77L10.779,19.84C10.68,20.113 10.63,20.361 10.63,20.584Z" style="fill:white;fill-rule:nonzero;"/>
                </g>
            </g>
        </g>
    </g>
    <defs>
        <linearGradient id="_Linear1" x1="0" y1="0" x2="1" y2="0" gradientUnits="userSpaceOnUse" gradientTransform="matrix(6.71323e-15,109.635,-109.635,6.71323e-15,20.2979,-61.1184)"><stop offset="0" style="stop-color:black;stop-opacity:1"/><stop offset="1" style="stop-color:rgb(118,17,60);stop-opacity:1"/></linearGradient>
    </defs>
</svg>
