<svg width="68" height="40" viewBox="0 0 68 40" fill="none" xmlns="http://www.w3.org/2000/svg">
<path d="M57.6927 17.775L60.157 22.9242C60.9784 24.6713 60.522 26.7861 58.9705 27.8895L51.8515 33.5904C51.2126 34.1421 50.4824 34.418 49.7523 34.5099L50.4824 28.2573L54.1332 24.1196L50.1173 16.8555L44.6412 23.1081L47.288 27.8895L46.5578 34.1421C45.919 33.8663 45.3713 33.4065 44.915 32.7629L39.8039 26.1425C38.7087 24.6713 38.6174 22.7403 39.7127 21.2691L44.0936 15.0165L34.1452 0.94812L24.1056 15.0165L28.4866 21.2691C29.4905 22.7403 29.4905 24.7632 28.3953 26.1425L23.2842 32.7629C22.8279 33.3146 22.2803 33.7743 21.6414 34.1421L21.0025 27.9815L23.6493 23.2001L18.1731 16.9475L14.1573 24.2115L17.8081 28.3493L18.5382 34.6019C17.8081 34.418 17.0779 34.1421 16.439 33.6824L9.32003 27.9815C7.85972 26.7861 7.31211 24.6713 8.13353 23.0162L10.5978 17.867L0.923264 8.39609L6.58195 36.9926V39.8431H21.2763H46.9229H61.6173V36.9926L67.2759 8.39609L57.6927 17.775ZM34.1452 12.4419C35.3317 12.4419 36.2444 13.3614 36.2444 14.5568C36.2444 15.7521 35.3317 16.6716 34.1452 16.6716C32.9587 16.6716 32.046 15.7521 32.046 14.5568C32.046 13.3614 32.9587 12.4419 34.1452 12.4419ZM34.1452 31.1078C35.3317 31.1078 36.2444 32.0273 36.2444 33.2226C36.2444 34.418 35.3317 35.3375 34.1452 35.3375C32.9587 35.3375 32.046 34.418 32.046 33.2226C31.9548 32.1192 32.9587 31.1078 34.1452 31.1078Z" fill="#C7C7C7"/>
</svg>
