<svg width="154" height="70" viewBox="0 0 154 70" fill="none" xmlns="http://www.w3.org/2000/svg">
<path fill-rule="evenodd" clip-rule="evenodd" d="M27.085 12.8141C24.8394 11.3111 21.9638 10.353 18.5318 10.0237L13.6505 9.55523C10.8612 9.28756 9.54958 7.57908 9.80428 4.9658C9.83048 4.46923 9.87118 3.99155 9.91086 3.52574V3.52572C9.99702 2.51439 10.0784 1.55904 9.99635 0.588013C6.58321 6.23933 7.90566 12.1692 12.1523 14.3352C14.77 15.6415 17.3877 16.9478 19.9482 18.6003C22.9459 20.8223 22.1451 25.6692 18.2321 28.9865C14.1162 32.4602 7.72578 32.5504 6.55449 28.921C5.326 25.6379 4.85204 22.0754 7.54197 17.5856C7.92303 17.0434 8.20542 16.3726 8.61528 15.399L8.6153 15.3989C8.7035 15.1894 8.79761 14.9658 8.89988 14.7265C3.80061 19.8643 -0.76749 28.2184 1.54376 34.5949C3.09504 39.1399 6.52995 41.9314 11.7913 43.3155C12.33 43.4925 12.8769 43.6536 13.4196 43.8134L13.4198 43.8135C15.9234 44.5507 18.3379 45.2617 19.4415 47.3908C19.4847 47.4817 19.5289 47.5738 19.5737 47.6672C20.0739 48.7101 20.6485 49.9083 20.7585 51.21C20.7898 52.0922 19.8065 53.7563 18.9375 54.728C17.4598 56.1689 15.8622 56.1914 14.7277 55.555C12.1099 54.2487 10.3612 51.9707 9.97574 48.9443C10.0901 48.2519 10.0016 47.7159 9.9131 47.1799L9.91308 47.1798C4.38207 53.8588 4.94998 60.068 11.3458 62.0885C12.6853 62.6221 14.1782 62.9372 15.6867 63.2555L15.6867 63.2555C16.798 63.4901 17.9177 63.7264 18.9906 64.0531C21.6876 64.6449 23.6921 66.0111 25.5434 67.5843L27.085 12.8141ZM127.445 69.0925L125.438 14.6286C127.862 12.0754 131.495 10.4706 136.152 10.0237L141.034 9.55523C143.823 9.28756 145.135 7.57908 144.88 4.9658C144.854 4.46923 144.813 3.99153 144.773 3.52571C144.687 2.51439 144.606 1.55904 144.688 0.588013C148.101 6.23933 146.778 12.1692 142.532 14.3352C139.914 15.6415 137.296 16.9478 134.736 18.6003C131.738 20.8223 132.539 25.6692 136.452 28.9865C140.568 32.4602 146.958 32.5504 148.13 28.921C149.358 25.6379 149.832 22.0754 147.142 17.5856C146.761 17.0434 146.479 16.3727 146.069 15.3992L146.069 15.399C145.981 15.1895 145.887 14.9659 145.784 14.7265C150.884 19.8643 155.452 28.2184 153.14 34.5949C151.589 39.1399 148.154 41.9314 142.893 43.3155C142.354 43.4926 141.807 43.6536 141.264 43.8135C138.761 44.5507 136.346 45.2617 135.243 47.3908C135.199 47.4817 135.155 47.5739 135.11 47.6673C134.61 48.7102 134.036 49.9083 133.926 51.21C133.894 52.0922 134.878 53.7563 135.747 54.728C137.224 56.1689 138.822 56.1914 139.956 55.555C142.574 54.2487 144.323 51.9707 144.708 48.9443C144.594 48.2519 144.683 47.7158 144.771 47.1798C150.302 53.8588 149.734 60.068 143.338 62.0885C141.999 62.6221 140.506 62.9372 138.997 63.2555C137.886 63.49 136.766 63.7264 135.694 64.0531C132.159 64.8287 129.814 66.9342 127.445 69.0925Z" fill="#C7C7C7"/>
</svg>
