<svg width="140" height="139" viewBox="0 0 140 139" fill="none" xmlns="http://www.w3.org/2000/svg">
<path d="M127.561 0.890869C123.792 0.890869 120.47 2.70286 118.355 5.46087H20.9337C18.8186 2.70286 15.4964 0.890869 11.7274 0.890869C5.34015 0.890869 0.143921 6.01622 0.143921 12.3157C0.143921 18.6152 5.34015 23.7406 11.7274 23.7406C15.4967 23.7406 18.8189 21.9286 20.9337 19.1706H25.1266L22.4026 115.614C22.4026 116.532 22.961 117.364 23.8203 117.721L68.745 138.713C69.0323 138.831 69.3382 138.891 69.6439 138.891C69.9496 138.891 70.2556 138.831 70.5428 138.713L116.376 119.53C117.235 119.174 117.793 118.342 117.793 117.424L114.161 19.1706H118.354C120.469 21.9286 123.791 23.7406 127.56 23.7406C133.947 23.7406 139.144 18.6155 139.144 12.3157C139.144 6.01622 133.948 0.890869 127.561 0.890869ZM116.212 14.6006H113.661H25.6274H23.0768C23.2297 13.8626 23.3109 13.0971 23.3109 12.3157C23.3109 11.5344 23.2297 10.7688 23.0768 10.0309H116.212C116.059 10.7688 115.978 11.5344 115.978 12.3157C115.978 13.0971 116.059 13.8626 116.212 14.6006Z" fill="#BE8D69"/>
</svg>
