<svg width="61" height="45" viewBox="0 0 61 45" fill="none" xmlns="http://www.w3.org/2000/svg">
<path d="M51.6404 22.5298C54.2564 23.1335 56.1681 25.5483 56.1681 28.3655C56.1681 31.6858 53.4515 34.3018 50.2318 34.3018C49.2256 34.3018 48.3201 34.1006 47.5151 33.5975C47.0121 33.2957 46.509 32.9938 46.1065 32.5914C45.4022 33.2957 44.4967 33.7988 43.5911 34C43.088 34.1006 42.585 34.2012 41.9813 34.2012C38.6609 34.2012 36.0449 31.4846 36.0449 28.2649C36.0449 25.0452 38.6609 22.4292 41.8807 22.3286L30.9135 0.696167L19.9464 22.3286C23.1661 22.4292 25.7821 25.0452 25.7821 28.2649C25.7821 31.5852 23.0655 34.2012 19.8458 34.2012C19.3427 34.2012 18.739 34.1006 18.2359 34C17.2298 33.6981 16.4249 33.1951 15.7205 32.5914C15.3181 32.9938 14.815 33.2957 14.3119 33.5975C13.507 34 12.5008 34.3018 11.5953 34.3018C8.27498 34.3018 5.65897 31.5852 5.65897 28.3655C5.65897 25.5483 7.57067 23.2341 10.1867 22.5298L0.829407 9.24851V40.9425V44.2628H8.87867H25.279H36.4474H52.8478H60.897V40.9425V9.24851L51.6404 22.5298ZM56.7718 37.7228C57.5767 37.7228 58.1804 38.3265 58.1804 39.1314C58.1804 39.9363 57.5767 40.54 56.7718 40.54C55.9669 40.54 55.3632 39.9363 55.3632 39.1314C55.3632 38.3265 55.9669 37.7228 56.7718 37.7228ZM50.2318 37.7228C51.0367 37.7228 51.6404 38.3265 51.6404 39.1314C51.6404 39.6345 51.3385 40.1376 50.9361 40.3388C50.7348 40.4394 50.5336 40.54 50.2318 40.54C49.4268 40.54 48.8231 39.9363 48.8231 39.1314C48.8231 38.5277 49.125 38.1252 49.6281 37.8234C49.8293 37.8234 50.0305 37.7228 50.2318 37.7228ZM43.7924 37.7228C44.5973 37.7228 45.201 38.3265 45.201 39.1314C45.201 39.9363 44.5973 40.54 43.7924 40.54C42.9874 40.54 42.3837 39.9363 42.3837 39.1314C42.3837 38.3265 42.9874 37.7228 43.7924 37.7228ZM37.3529 37.7228C38.1579 37.7228 38.7616 38.3265 38.7616 39.1314C38.7616 39.9363 38.1579 40.54 37.3529 40.54C36.548 40.54 35.9443 39.9363 35.9443 39.1314C35.9443 38.3265 36.548 37.7228 37.3529 37.7228ZM30.9135 37.7228C31.7185 37.7228 32.3222 38.3265 32.3222 39.1314C32.3222 39.9363 31.7185 40.54 30.9135 40.54C30.1086 40.54 29.5049 39.9363 29.5049 39.1314C29.5049 38.3265 30.1086 37.7228 30.9135 37.7228ZM24.3735 37.7228C25.1784 37.7228 25.7821 38.3265 25.7821 39.1314C25.7821 39.9363 25.1784 40.54 24.3735 40.54C23.5686 40.54 22.9649 39.9363 22.9649 39.1314C22.9649 38.3265 23.6692 37.7228 24.3735 37.7228ZM17.9341 37.7228C18.739 37.7228 19.3427 38.3265 19.3427 39.1314C19.3427 39.9363 18.739 40.54 17.9341 40.54C17.1292 40.54 16.5255 39.9363 16.5255 39.1314C16.5255 38.3265 17.1292 37.7228 17.9341 37.7228ZM11.4947 37.7228C11.6959 37.7228 11.8971 37.8234 12.0984 37.8234C12.6015 38.0246 12.9033 38.5277 12.9033 39.1314C12.9033 39.9363 12.2996 40.54 11.4947 40.54C11.2935 40.54 10.9916 40.4394 10.7904 40.3388C10.3879 40.1376 10.0861 39.6345 10.0861 39.1314C10.0861 38.3265 10.6898 37.7228 11.4947 37.7228ZM5.05527 37.7228C5.8602 37.7228 6.46389 38.3265 6.46389 39.1314C6.46389 39.9363 5.8602 40.54 5.05527 40.54C4.25034 40.54 3.64665 39.9363 3.64665 39.1314C3.64665 38.3265 4.25034 37.7228 5.05527 37.7228Z" fill="#BE8D69"/>
</svg>
