<svg width="149" height="74" viewBox="0 0 149 74" fill="none" xmlns="http://www.w3.org/2000/svg">
<path fill-rule="evenodd" clip-rule="evenodd" d="M126.593 71.5172L124.426 12.7024C126.231 11.5951 128.398 10.8084 130.899 10.3832L135.548 9.59281C138.204 9.14117 139.361 7.28707 138.966 4.59209C138.912 4.07882 138.846 3.58602 138.781 3.10547L138.781 3.1048C138.64 2.06111 138.507 1.07519 138.529 0.0628052C142.125 5.71226 141.202 11.9461 137.259 14.4579C134.827 15.9762 132.396 17.4946 130.039 19.3685C127.296 21.8604 128.343 26.8384 132.283 30.0355C136.427 33.3822 142.553 33.0771 143.465 29.2392C144.452 25.7568 144.7 22.0317 141.863 17.5421C141.467 17.0034 141.158 16.3252 140.709 15.3409L140.706 15.3338C140.61 15.124 140.508 14.9002 140.397 14.6609C145.579 19.6725 150.438 28.0536 148.593 34.8123C147.37 39.6239 144.241 42.7339 139.282 44.4979C138.776 44.7151 138.261 44.9162 137.751 45.1158L137.75 45.116C135.395 46.0369 133.123 46.925 132.19 49.2025C132.153 49.2994 132.116 49.3978 132.079 49.4975C131.66 50.6105 131.179 51.8893 131.149 53.2464C131.17 54.1636 132.208 55.8285 133.097 56.7823C134.596 58.1847 136.127 58.1085 137.177 57.3775C139.609 55.8592 141.152 53.387 141.346 50.2236C141.197 49.5124 141.25 48.9509 141.304 48.3893C146.988 54.9727 146.804 61.4492 140.794 63.9441C139.542 64.5811 138.13 65.0011 136.704 65.4254L136.704 65.4254C135.653 65.7381 134.594 66.053 133.585 66.4589C130.565 67.3856 128.539 69.3795 126.593 71.5172ZM25.6216 12.9073C23.7543 11.6918 21.4769 10.8342 18.8246 10.3832L14.1762 9.59281C11.5199 9.14117 10.3624 7.28707 10.7576 4.59209C10.8114 4.07861 10.878 3.58562 10.943 3.10488C11.084 2.06116 11.2172 1.07521 11.1948 0.0628052C7.59858 5.71226 8.52223 11.9461 12.4646 14.4579C14.8964 15.9762 17.3282 17.4946 19.6852 19.3685C22.428 21.8604 21.3805 26.8384 17.4405 30.0355C13.2971 33.3822 7.17086 33.0771 6.2589 29.2392C5.27212 25.7568 5.02424 22.0317 7.86052 17.5421C8.25689 17.0034 8.56618 16.3251 9.01509 15.3407C9.11171 15.1288 9.21479 14.9028 9.3266 14.6609C4.14504 19.6725 -0.713814 28.0536 1.13113 34.8123C2.35409 39.6239 5.48273 42.7339 10.4422 44.4979C10.948 44.7151 11.4626 44.9163 11.9733 45.1159L11.9733 45.116C14.3287 46.0369 16.6003 46.925 17.5342 49.2025C17.5703 49.2994 17.6073 49.3978 17.6448 49.4975C18.0636 50.6105 18.5447 51.8893 18.5748 53.2464C18.5537 54.1636 17.5156 55.8285 16.627 56.7823C15.1282 58.1847 13.5966 58.1085 12.5468 57.3775C10.1149 55.8592 8.57168 53.387 8.37758 50.2236C8.52721 49.5125 8.47343 48.9509 8.41965 48.3894L8.41964 48.3893C2.73536 54.9727 2.92012 61.4492 8.92949 63.9441C10.1816 64.5811 11.5934 65.0011 13.0198 65.4254L13.0198 65.4254L13.02 65.4255C14.0708 65.7381 15.1296 66.053 16.1384 66.4589C19.5218 67.497 21.6577 69.8743 23.8307 72.2928C24.0027 72.4842 24.175 72.676 24.3481 72.8673C24.106 72.5016 23.9693 72.0674 23.9693 71.6119L25.6216 12.9073ZM24.8254 73.3904C24.9921 73.5243 25.1795 73.6364 25.3839 73.7215L25.5756 73.8193C25.3266 73.795 25.1672 73.7561 25.1057 73.6921C25.0118 73.5918 24.9184 73.4912 24.8254 73.3904Z" fill="#BE8D69"/>
</svg>
