<svg width="30" height="38" viewBox="0 0 30 38" fill="none" xmlns="http://www.w3.org/2000/svg">
<g filter="url(#filter0_d_1:570)">
<path d="M18.8363 9.28942C18.8363 8.74642 18.694 8.29392 18.4096 7.93192C18.1252 7.54406 17.7373 7.35013 17.246 7.35013C16.16 7.35013 15.5783 8.2422 15.5007 10.0263L8.44168 11.2675C9.65697 5.63063 11.8807 2.11406 15.1128 0.717772C15.992 0.329915 16.9099 0.135986 17.8666 0.135986C19.8318 0.135986 21.5254 0.795343 22.9475 2.11406C24.861 3.82063 25.8177 5.85042 25.8177 8.20342C25.8177 10.453 24.848 12.6379 22.9088 14.7582C21.5642 16.2838 19.4439 17.7059 16.5479 19.0246C14.35 20.0331 12.9925 20.9768 12.4754 21.856L22.327 21.2354L21.5125 28.2944L4.91218 29.1865C4.86047 28.4625 4.83461 27.9195 4.83461 27.5575C4.83461 25.0752 5.33882 22.942 6.34725 21.1578C7.53668 18.96 10.2388 16.7492 14.4535 14.5255C16.7806 13.3102 18.151 12.1078 18.5648 10.9184C18.7458 10.3496 18.8363 9.80656 18.8363 9.28942Z" fill="white"/>
</g>
<defs>
<filter id="filter0_d_1:570" x="0.83461" y="0.135986" width="28.9831" height="37.0505" filterUnits="userSpaceOnUse" color-interpolation-filters="sRGB">
<feFlood flood-opacity="0" result="BackgroundImageFix"/>
<feColorMatrix in="SourceAlpha" type="matrix" values="0 0 0 0 0 0 0 0 0 0 0 0 0 0 0 0 0 0 127 0" result="hardAlpha"/>
<feOffset dy="4"/>
<feGaussianBlur stdDeviation="2"/>
<feColorMatrix type="matrix" values="0 0 0 0 0 0 0 0 0 0 0 0 0 0 0 0 0 0 0.25 0"/>
<feBlend mode="normal" in2="BackgroundImageFix" result="effect1_dropShadow_1:570"/>
<feBlend mode="normal" in="SourceGraphic" in2="effect1_dropShadow_1:570" result="shape"/>
</filter>
</defs>
</svg>
