<svg width="139" height="139" viewBox="0 0 139 139" fill="none" xmlns="http://www.w3.org/2000/svg">
<path d="M127.484 0.890869C123.742 0.890869 120.444 2.70286 118.344 5.46087H21.624C19.5241 2.70286 16.2258 0.890869 12.4839 0.890869C6.14261 0.890869 0.983765 6.01622 0.983765 12.3157C0.983765 18.6152 6.14261 23.7406 12.4839 23.7406C16.2261 23.7406 19.5244 21.9286 21.624 19.1706H25.7867L23.0823 115.614C23.0823 116.532 23.6367 117.364 24.4898 117.721L69.0913 138.713C69.3765 138.831 69.6803 138.891 69.9838 138.891C70.2873 138.891 70.591 138.831 70.8762 138.713L116.379 119.53C117.233 119.174 117.787 118.342 117.787 117.424L114.181 19.1706H118.344C120.443 21.9286 123.742 23.7406 127.484 23.7406C133.825 23.7406 138.984 18.6155 138.984 12.3157C138.984 6.01622 133.825 0.890869 127.484 0.890869ZM116.217 14.6006H113.684H26.284H23.7517C23.9034 13.8626 23.984 13.0971 23.984 12.3157C23.984 11.5344 23.9034 10.7688 23.7517 10.0309H116.217C116.065 10.7688 115.984 11.5344 115.984 12.3157C115.984 13.0971 116.065 13.8626 116.217 14.6006Z" fill="#C7C7C7"/>
</svg>
